<svg xmlns="http://www.w3.org/2000/svg" width="237" height="238" viewBox="0 0 237 238">
  <g id="그룹_282" data-name="그룹 282" transform="translate(-0.444)">
    <ellipse id="타원_88" data-name="타원 88" cx="118.5" cy="119" rx="118.5" ry="119" transform="translate(0.444)" fill="rgba(239,79,128,0.1)"/>
    <g id="그룹_92" data-name="그룹 92" transform="translate(50.612 78.56)">
      <path id="Icon_awesome-handshake" data-name="Icon awesome-handshake" d="M116.093,12.385V59.775a6.794,6.794,0,0,0,6.829,6.773H136.58V12.385Zm10.243,47.391a3.387,3.387,0,1,1,3.414-3.387A3.411,3.411,0,0,1,126.336,59.775ZM0,66.527H13.658a6.794,6.794,0,0,0,6.829-6.773V12.385H0ZM10.243,53a3.387,3.387,0,1,1-3.414,3.387A3.411,3.411,0,0,1,10.243,53Z" transform="translate(0 1.1)" fill="#ef4f80"/>
      <path id="Icon_awesome-handshake-2" data-name="Icon awesome-handshake" d="M79.268,9.44H57.1l-24.061,22.1c-.022.022-.045.067-.067.09A8.935,8.935,0,0,0,32.5,44.212a9.369,9.369,0,0,0,12.6.606c.022-.022,7.023-6.13,13.324-12.432L94.834,65.552a16.184,16.184,0,0,1,1.775,1.73V23.816L84.344,11.552A7.136,7.136,0,0,0,79.268,9.44Zm16.4,56.786L58.426,32.387C43.32,46.678,38.5,50.682,32.545,44.19c-6.042-6.6-.379-11.905,6.18-17.925L57.1,9.44H38.276A7.175,7.175,0,0,0,33.2,11.552L15.72,23.816V69.191h4.111l20.329,18.4A14.373,14.373,0,0,0,60.376,85.5l.045-.045,4.021,3.482A8.348,8.348,0,0,0,76.19,87.723l7.053-8.671,1.213.988a7.177,7.177,0,0,0,10.108-1.056L96.7,76.357a7.2,7.2,0,0,0-1.033-10.131Z" transform="translate(12.036 -9.44)" fill="#fff" stroke="#212121" stroke-width="2"/>
    </g>
  </g>
</svg>
