<svg xmlns="http://www.w3.org/2000/svg" width="47.2" height="27.968" viewBox="0 0 47.2 27.968">
    <defs>
        <style>
            .cls-1{fill:#fff}.cls-2{fill:#212121;font-size:16px;font-family:NIXGONB-Vb,&apos;NIXGONFONTS V2.0 B&apos;}
        </style>
    </defs>
    <g id="그룹_70" data-name="그룹 70">
        <path id="Icon_awesome-money-bill-wave-alt" d="M45.786 3.652a25.315 25.315 0 0 0-8.581-1.4c-9.079 0-18.157 3.892-27.236 3.892a34.1 34.1 0 0 1-6.829-.858A4.657 4.657 0 0 1 0 3.412v23.566a2 2 0 0 0 1.389 1.839 25.3 25.3 0 0 0 8.581 1.4c9.079 0 18.158-3.893 27.237-3.893a27.04 27.04 0 0 1 6.829.857A5.815 5.815 0 0 1 47.2 29.3l-.024-23.808a2 2 0 0 0-1.389-1.84z" class="cls-1" data-name="Icon awesome-money-bill-wave-alt" transform="translate(0 -2.25)"/>
        <text id="_" class="cls-2" data-name="\" transform="translate(14.247 19.199)">
            <tspan x="0" y="0">\</tspan>
        </text>
    </g>
</svg>
