<svg xmlns="http://www.w3.org/2000/svg" id="그룹_154" width="46.412" height="33.52" data-name="그룹 154" viewBox="0 0 46.412 33.52">
    <defs>
        <style>
            .cls-1{fill:#fff}.cls-1,.cls-3{stroke:#212121}.cls-2{fill:#ef4f80}.cls-3,.cls-5{fill:none}.cls-3{stroke-width:.5px}.cls-4{stroke:none}
        </style>
    </defs>
    <g id="사각형_46" class="cls-1" data-name="사각형 46" transform="rotate(-90 16.76 16.76)">
        <rect width="33.52" height="46.412" class="cls-4" rx="5"/>
        <rect width="32.52" height="45.412" x=".5" y=".5" class="cls-5" rx="4.5"/>
    </g>
    <g id="그룹_65" data-name="그룹 65" transform="translate(9.977 4.014)">
        <path id="Icon_ionic-ios-settings" d="M13 7.084a1.823 1.823 0 0 1 1.17-1.7 7.227 7.227 0 0 0-.87-2.107 1.848 1.848 0 0 1-.742.159 1.819 1.819 0 0 1-1.67-2.562A7.2 7.2 0 0 0 8.785 0a1.825 1.825 0 0 1-1.7 1.17A1.825 1.825 0 0 1 5.383 0a7.227 7.227 0 0 0-2.107.874 1.819 1.819 0 0 1-1.664 2.561 1.787 1.787 0 0 1-.742-.159A7.386 7.386 0 0 0 0 5.387a1.821 1.821 0 0 1 1.17 1.7A1.825 1.825 0 0 1 0 8.789 7.227 7.227 0 0 0 .878 10.9a1.82 1.82 0 0 1 2.4 2.4 7.269 7.269 0 0 0 2.107.874 1.818 1.818 0 0 1 3.394 0 7.227 7.227 0 0 0 2.107-.874 1.822 1.822 0 0 1 2.4-2.4 7.269 7.269 0 0 0 .874-2.107A1.832 1.832 0 0 1 13 7.084zm-5.883 2.948a2.952 2.952 0 1 1 2.952-2.952 2.952 2.952 0 0 1-2.952 2.952z" class="cls-1" data-name="Icon ionic-ios-settings" transform="rotate(-15.009 13.918 1.834)"/>
        <path id="Icon_ionic-ios-settings-2" d="M8.315 4.532a1.166 1.166 0 0 1 .748-1.088A4.623 4.623 0 0 0 8.5 2.1a1.182 1.182 0 0 1-.474.1A1.164 1.164 0 0 1 6.965.559 4.609 4.609 0 0 0 5.62 0a1.167 1.167 0 0 1-1.088.748A1.167 1.167 0 0 1 3.444 0 4.623 4.623 0 0 0 2.1.559 1.164 1.164 0 0 1 1.031 2.2a1.143 1.143 0 0 1-.474-.1A4.725 4.725 0 0 0 0 3.446a1.165 1.165 0 0 1 .748 1.088A1.168 1.168 0 0 1 0 5.622 4.623 4.623 0 0 0 .562 6.97 1.164 1.164 0 0 1 2.1 8.506a4.65 4.65 0 0 0 1.348.559 1.163 1.163 0 0 1 2.171 0 4.623 4.623 0 0 0 1.348-.559A1.165 1.165 0 0 1 8.5 6.97a4.65 4.65 0 0 0 .559-1.348 1.172 1.172 0 0 1-.744-1.09zM4.553 6.417a1.888 1.888 0 1 1 1.888-1.888 1.888 1.888 0 0 1-1.888 1.888z" class="cls-2" data-name="Icon ionic-ios-settings" transform="rotate(-15.009 52.903 -51.926)"/>
        <path id="Icon_ionic-ios-settings-3" d="M5.963 3.25a.836.836 0 0 1 .537-.78 3.315 3.315 0 0 0-.4-.97.848.848 0 0 1-.34.073A.835.835 0 0 1 4.995.4 3.3 3.3 0 0 0 4.03 0a.837.837 0 0 1-.78.537A.837.837 0 0 1 2.47 0a3.315 3.315 0 0 0-.97.4.835.835 0 0 1-.76 1.176A.82.82 0 0 1 .4 1.5a3.389 3.389 0 0 0-.4.968.835.835 0 0 1 .537.78.837.837 0 0 1-.537.784A3.315 3.315 0 0 0 .4 5a.835.835 0 0 1 1.1 1.1 3.335 3.335 0 0 0 .966.4.834.834 0 0 1 1.557 0 3.315 3.315 0 0 0 .966-.4A.836.836 0 0 1 6.1 5a3.335 3.335 0 0 0 .4-.966.84.84 0 0 1-.537-.784zM3.265 4.6a1.354 1.354 0 1 1 1.354-1.352A1.354 1.354 0 0 1 3.265 4.6z" class="cls-3" data-name="Icon ionic-ios-settings" transform="rotate(-15.009 75.058 -20.394)"/>
    </g>
</svg>
