<svg id="그룹_68" data-name="그룹 68" xmlns="http://www.w3.org/2000/svg" width="32" height="45" viewBox="0 0 32 45">
  <path id="Icon_awesome-lightbulb" data-name="Icon awesome-lightbulb" d="M0,14.378a14.563,14.563,0,0,0,3.961,9.945,24.386,24.386,0,0,1,4.746,7.856v.067H23.285v-.067a24.386,24.386,0,0,1,4.746-7.856A14.563,14.563,0,0,0,32,14.378,16.363,16.363,0,0,0,15.972-1.694,16.314,16.314,0,0,0,0,14.378Z" transform="translate(0 1.694)" fill="#ef4f80"/>
  <g id="Icon_awesome-lightbulb-2" data-name="Icon awesome-lightbulb" transform="translate(8.613 33.927)">
    <path id="패스_366" data-name="패스 366" d="M23.015,68.232H17.336a1.426,1.426,0,0,1-1.165-.873L14.6,64.4a2.952,2.952,0,0,1-.323-1.359l0-2.965H26.079l0,2.966a2.952,2.952,0,0,1-.323,1.358L24.18,67.358A1.427,1.427,0,0,1,23.015,68.232Z" transform="translate(-12.814 -58.615)" fill="#f3f3f3"/>
    <path id="패스_367" data-name="패스 367" d="M16.686,62.483V63.99a1.5,1.5,0,0,0,.153.679l1.573,2.964a.776.776,0,0,0,.062.1h5.313a.773.773,0,0,0,.062-.1l1.573-2.964a1.494,1.494,0,0,0,.153-.676V62.483H16.686m-2.915-2.912H28.493l0,4.423A4.379,4.379,0,0,1,28,66.034L26.423,69a2.844,2.844,0,0,1-2.452,1.647H18.293A2.845,2.845,0,0,1,15.842,69l-1.573-2.963a4.384,4.384,0,0,1-.493-2.04Z" transform="translate(-13.771 -59.571)" fill="#212121"/>
  </g>
  <circle id="타원_85" data-name="타원 85" cx="4.825" cy="4.825" r="4.825" transform="translate(11.043 13.672)" fill="#fff"/>
</svg>
