<svg xmlns="http://www.w3.org/2000/svg" width="89.272" height="126.749" viewBox="0 0 89.272 126.749">
    <defs>
        <style>
            .cls-1{fill:none;stroke:#85ce91;stroke-width:2px}.cls-2{fill:#53b480}
        </style>
    </defs>
    <g id="그룹_230" data-name="그룹 230" transform="rotate(-30 37.432 42.74)">
        <path id="패스_251" d="M34.578 114.294S-34.4 74.517 22.494 0" class="cls-1" data-name="패스 251" transform="translate(14.306 10.559)"/>
        <path id="패스_252" d="M12.748 0S1.085.068 0 11.73C12.476 10.849 12.748 0 12.748 0z" class="cls-2" data-name="패스 252" transform="translate(36.136)"/>
        <path id="패스_253" d="M2.812 21.833c0-.2-7.8-14.307 2.576-21.833C8.3 15.256 2.812 21.833 2.812 21.833z" class="cls-2" data-name="패스 253" transform="translate(22.947 3.7)"/>
        <path id="패스_254" d="M3.046 22.971c0-.2-8.154-15.445 2.219-22.971 2.917 15.256-2.219 22.971-2.219 22.971z" class="cls-2" data-name="패스 254" transform="rotate(-15.009 81.137 -27.822)"/>
        <path id="패스_255" d="M3.864 22.036c0-.2-9.5-10.166 1.289-22.036C8.07 15.256 3.864 22.036 3.864 22.036z" class="cls-2" data-name="패스 255" transform="rotate(-30 79.571 21.321)"/>
        <path id="패스_262" d="M1.909 18.14c0-.168 7.82-8.369-1.062-18.14-2.4 12.558 1.062 18.14 1.062 18.14z" class="cls-2" data-name="패스 262" transform="rotate(25.976 -155.78 98.137)"/>
        <path id="패스_263" d="M2.476 18.14c0-.168 10.138-8.369-1.376-18.14-3.113 12.558 1.376 18.14 1.376 18.14z" class="cls-2" data-name="패스 263" transform="rotate(13 -397.528 203.03)"/>
        <path id="패스_259" d="M2.336 17.06c0-.16 8.531-7.87-1.159-17.06C.691 2.2-.858 3.183.632 8.531c.793 2.849 1.704 8.529 1.704 8.529z" class="cls-2" data-name="패스 259" transform="rotate(66.997 5.233 39.923)"/>
        <path id="패스_260" d="M0 16.612C0 16.449 12.6 9.529 2.132 0 1.607 2.278-.41 3.378.291 8.136.98 10.7 0 16.612 0 16.612z" class="cls-2" data-name="패스 260" transform="rotate(45 -30.294 52.56)"/>
        <path id="패스_261" d="M0 16.056C0 15.892 14.618 9.529 4.15 0 3.626 2.278 2.759 4.157 2.6 8.254a17.366 17.366 0 0 1-2.6 7.8z" class="cls-2" data-name="패스 261" transform="rotate(15.009 -210.955 100.273)"/>
        <path id="패스_256" d="M13.48 15.249S-1.769 12.34.17 0c8.904 2.38 13.31 15.249 13.31 15.249z" class="cls-2" data-name="패스 256" transform="translate(.785 59.44)"/>
        <path id="패스_257" d="M14.1 15.317S-1.775 12.34.164 0c6.41 1.714 7.568 8.019 13.47 14.84.384.572.466.477.466.477z" class="cls-2" data-name="패스 257" transform="rotate(-30 205.211 26.658)"/>
        <path id="패스_258" d="M13.05 14.709S-2.226 12.869.277 0c6.41 1.714 6.405 7.411 12.308 14.232.383.568.465.477.465.477z" class="cls-2" data-name="패스 258" transform="rotate(-15.009 321.417 21.44)"/>
    </g>
</svg>
