<svg xmlns="http://www.w3.org/2000/svg" width="52.81" height="33.192" viewBox="0 0 52.81 33.192">
    <defs>
        <style>
            .cls-1{fill:#ef4f80}.cls-2{fill:none;stroke:#fff;stroke-width:2px}
        </style>
    </defs>
    <g id="그룹_227" data-name="그룹 227" transform="translate(0 1)">
        <path id="Icon_awesome-handshake" d="M44.889 12.385v17.892a2.6 2.6 0 0 0 2.641 2.557h5.28V12.385zm3.961 17.893A1.275 1.275 0 1 1 50.17 29a1.3 1.3 0 0 1-1.32 1.274zM0 32.826h5.281a2.6 2.6 0 0 0 2.641-2.557V12.385H0zm3.961-5.106a1.275 1.275 0 1 1-1.32 1.275 1.3 1.3 0 0 1 1.32-1.275z" class="cls-1" data-name="Icon awesome-handshake" transform="translate(0 -7.176)"/>
        <path id="Icon_awesome-handshake-2" d="M40.309 9.44h-8.582l-9.305 8.41c-.009.008-.017.025-.026.035a3.36 3.36 0 0 0-.182 4.786 3.67 3.67 0 0 0 4.876.23c.009-.008 2.717-2.333 5.155-4.73l14.087 12.617a6.216 6.216 0 0 1 .687.658V14.909l-4.746-4.666a2.785 2.785 0 0 0-1.964-.8zm6.344 21.6L32.244 18.171c-5.845 5.437-7.71 6.96-10.014 4.49-2.338-2.513-.147-4.53 2.391-6.82l7.106-6.4h-7.284a2.8 2.8 0 0 0-1.964.8l-6.759 4.668v17.264h1.591l7.866 7a5.626 5.626 0 0 0 7.823-.8l.017-.017 1.556 1.325a3.268 3.268 0 0 0 4.545-.462l2.732-3.3.469.376a2.809 2.809 0 0 0 3.915-.4l.826-1a2.709 2.709 0 0 0-.4-3.854z" class="cls-2" data-name="Icon awesome-handshake" transform="translate(-5 -9.44)"/>
    </g>
</svg>
