<svg xmlns="http://www.w3.org/2000/svg" width="58" height="36.003" viewBox="0 0 58 36.003">
    <defs>
        <style>
            .cls-1{fill:#ef4f80}.cls-2{fill:none;stroke:#ffdd57;stroke-width:2px}
        </style>
    </defs>
    <g id="그룹_227" data-name="그룹 227" transform="translate(0 1)">
        <path id="Icon_awesome-handshake" d="M49.3 12.385v19.65a2.852 2.852 0 0 0 2.9 2.808H58V12.385zm4.35 19.651a1.4 1.4 0 1 1 1.45-1.4 1.432 1.432 0 0 1-1.45 1.4zM0 34.835h5.8a2.852 2.852 0 0 0 2.9-2.808V12.385H0zm4.35-5.608a1.4 1.4 0 1 1-1.45 1.4 1.432 1.432 0 0 1 1.45-1.4z" class="cls-1" data-name="Icon awesome-handshake" transform="translate(0 -6.664)"/>
        <path id="Icon_awesome-handshake-2" d="M42.725 9.44H33.3l-10.22 9.236c-.01.009-.019.028-.029.038a3.69 3.69 0 0 0-.2 5.256 4.031 4.031 0 0 0 5.355.253c.01-.009 2.984-2.562 5.662-5.195L49.34 32.886a6.827 6.827 0 0 1 .754.723V15.447l-5.212-5.125a3.059 3.059 0 0 0-2.157-.882zm6.968 23.728L33.868 19.029C27.449 25 25.4 26.673 22.87 23.96c-2.568-2.76-.161-4.975 2.626-7.49l7.8-7.03h-8a3.075 3.075 0 0 0-2.157.882l-7.419 5.125v18.96h1.747l8.639 7.687a6.179 6.179 0 0 0 8.591-.873l.019-.019 1.709 1.455a3.589 3.589 0 0 0 4.992-.507l3-3.623.515.413a3.085 3.085 0 0 0 4.3-.441l.907-1.1a2.975 2.975 0 0 0-.439-4.233z" class="cls-2" data-name="Icon awesome-handshake" transform="translate(-3.946 -9.44)"/>
    </g>
</svg>
