<svg xmlns="http://www.w3.org/2000/svg" width="76.523" height="76.523" viewBox="0 0 76.523 76.523">
    <defs>
        <style>
            .cls-1{fill:#ef4f80}.cls-2{fill:#f2346e}.cls-3{fill:#7c8388}.cls-4{fill:#575f64}.cls-5{fill:#ffe1bf}.cls-6{fill:#ffd09a}
        </style>
    </defs>
    <g id="start-up">
        <path id="패스_370" d="M21.842 189.122c-4.9-.666-10.62 1.453-14.567 5.4l-6.592 6.592a2.331 2.331 0 0 0 2.251 3.9c4.183-1.122 9.719-1.495 11.08-.455zm0 0" class="cls-1" data-name="패스 370" transform="translate(-.001 -164.173)"/>
        <path id="패스_371" d="M235.98 371.637l-15.459 7.458c.861 1.173.793 4.884-.211 11.678a2.33 2.33 0 0 0 3.952 1.989l6.592-6.591a18.26 18.26 0 0 0 5.126-14.533zm0 0" class="cls-2" data-name="패스 371" transform="translate(-185.304 -316.922)"/>
        <path id="패스_372" d="M89.862 298.973c-5.438 2.933-6.13 3.1-6.954 3.658a2.3 2.3 0 0 1-2.9-.33l-16.479-16.478a2.342 2.342 0 0 1-.33-2.9c.56-.824.626-1.352 3.592-7.02l6.526-.066L89.8 292.315zm0 0" class="cls-3" data-name="패스 372" transform="translate(-56.102 -232.981)"/>
        <path id="패스_373" d="M138.4 344.306c-5.438 2.933-6.13 3.1-6.954 3.658a2.3 2.3 0 0 1-2.9-.33l-8.24-8.24 9.888-9.887 8.14 8.14zm0 0" class="cls-4" data-name="패스 373" transform="translate(-104.635 -278.314)"/>
        <path id="패스_374" d="M111.34 80.025L88.27 56.954q17.155-32.381 41.132-40.34l11.206 11.14L151.549 38.7c-5.273 15.885-18.72 29.728-40.209 41.329zm0 0" class="cls-5" data-name="패스 374" transform="translate(-77.581 -14.033)"/>
        <path id="패스_375" d="M174.229 140.584l-11.5-11.5L203.5 88.313l10.942 10.942c-5.273 15.886-18.72 29.728-40.209 41.33zm0 0" class="cls-6" data-name="패스 375" transform="translate(-140.469 -74.592)"/>
        <path id="패스_378" d="M375.16 24.662a23.989 23.989 0 0 1-14.831-7.053l-.1-.1a23.793 23.793 0 0 1-7.218-14.93 45.754 45.754 0 0 1 4.614-1.318 53.35 53.35 0 0 1 17.667-.922 2.112 2.112 0 0 1 1.483.824 1.953 1.953 0 0 1 .594 1.253 52.333 52.333 0 0 1-.956 17.632 59.388 59.388 0 0 1-1.253 4.614zm0 0" class="cls-1" data-name="패스 378" transform="translate(-301.191 .001)"/>
        <path id="패스_379" d="M414.937 30.987a23.989 23.989 0 0 1-14.831-7.053l16.446-16.445a1.956 1.956 0 0 1 .594 1.253 52.347 52.347 0 0 1-.956 17.632 59.388 59.388 0 0 1-1.253 4.614zm0 0" class="cls-2" data-name="패스 379" transform="translate(-340.968 -6.325)"/>
        <path id="패스_380" d="M83.352 280.081a2.2 2.2 0 0 0-.659-1.45 2.156 2.156 0 0 0-1.68-.89c-8.569-.066-10.481 2.966-10.975 3.461-14.271 14.27-14.438 21.29-14.438 22.015a2.411 2.411 0 0 0 .692 1.615.172.172 0 0 0 .132.066 2 2 0 0 0 1.285.56c1.186.132 7.877-.033 22.214-14.369 3.231-3.23 3.461-6.229 3.428-11.008zm0 0" class="cls-1" data-name="패스 380" transform="translate(-44.695 -239.125)"/>
        <path id="패스_381" d="M87.832 284.924c.033 4.779-.2 7.778-3.428 11.008-14.337 14.337-21.027 14.5-22.213 14.37a2 2 0 0 1-1.285-.56l26.268-26.268a2.2 2.2 0 0 1 .658 1.451zm0 0" class="cls-2" data-name="패스 381" transform="translate(-49.175 -243.968)"/>
    </g>
</svg>
