<svg xmlns="http://www.w3.org/2000/svg" width="55.999" height="32.999" viewBox="0 0 55.999 32.999">
    <defs>
        <style>
            .cls-1{fill:#ffdd57}
        </style>
    </defs>
    <g id="그룹_3012" data-name="그룹 3012" transform="translate(-784.787 -6277.522)">
        <path id="Icon_ionic-ios-star" d="M31.572 13.925H21.565l-3.042-9.773a1.077 1.077 0 0 0-2.068 0l-3.041 9.774H3.339A1.136 1.136 0 0 0 2.25 15.1a.925.925 0 0 0 .02.2 1.148 1.148 0 0 0 .456.828l8.225 6.242L7.8 32.249a1.23 1.23 0 0 0 .374 1.319 1.017 1.017 0 0 0 .612.286 1.275 1.275 0 0 0 .68-.264l8.028-6.162 8.028 6.162a1.219 1.219 0 0 0 .68.264.945.945 0 0 0 .605-.286 1.214 1.214 0 0 0 .374-1.319l-3.157-9.884 8.157-6.3.2-.183a1.268 1.268 0 0 0 .354-.784 1.193 1.193 0 0 0-1.158-1.173z" class="cls-1" data-name="Icon ionic-ios-star" transform="translate(795.488 6274.146)"/>
        <path id="Icon_ionic-ios-star-2" d="M17.276 8.781h-5.129l-1.558-5.008a.552.552 0 0 0-1.06 0L7.971 8.781H2.808a.582.582 0 0 0-.558.6.474.474 0 0 0 .01.1.588.588 0 0 0 .234.424l4.215 3.2-1.618 5.066a.63.63 0 0 0 .192.676.521.521 0 0 0 .314.146.653.653 0 0 0 .349-.135l4.113-3.158 4.114 3.157a.625.625 0 0 0 .349.135.484.484 0 0 0 .31-.146.622.622 0 0 0 .192-.676l-1.618-5.07 4.18-3.229.1-.094a.65.65 0 0 0 .181-.4.611.611 0 0 0-.591-.596z" class="cls-1" data-name="Icon ionic-ios-star" transform="translate(822.919 6291.528)"/>
        <path id="Icon_ionic-ios-star-3" d="M17.276 8.781h-5.129l-1.558-5.008a.552.552 0 0 0-1.06 0L7.971 8.781H2.808a.582.582 0 0 0-.558.6.474.474 0 0 0 .01.1.588.588 0 0 0 .234.424l4.215 3.2-1.618 5.066a.63.63 0 0 0 .192.676.521.521 0 0 0 .314.146.653.653 0 0 0 .349-.135l4.113-3.158 4.114 3.157a.625.625 0 0 0 .349.135.484.484 0 0 0 .31-.146.622.622 0 0 0 .192-.676l-1.618-5.07 4.18-3.229.1-.094a.65.65 0 0 0 .181-.4.611.611 0 0 0-.591-.596z" class="cls-1" data-name="Icon ionic-ios-star" transform="translate(782.537 6291.528)"/>
    </g>
</svg>
