<svg xmlns="http://www.w3.org/2000/svg" width="67.007" height="39.489" viewBox="0 0 67.007 39.489">
    <defs>
        <style>
            .cls-1{fill:#fff}
        </style>
    </defs>
    <g id="그룹_3012" data-name="그룹 3012" transform="translate(0 .004)">
        <path id="Icon_ionic-ios-star" d="M37.336 16H25.362l-3.64-11.7a1.289 1.289 0 0 0-2.475 0L15.609 16H3.553a1.359 1.359 0 0 0-1.3 1.4 1.107 1.107 0 0 0 .024.239 1.374 1.374 0 0 0 .546.991l9.838 7.47-3.776 11.825a1.472 1.472 0 0 0 .448 1.575 1.217 1.217 0 0 0 .732.342 1.526 1.526 0 0 0 .814-.316l9.606-7.373 9.606 7.373a1.459 1.459 0 0 0 .814.316 1.131 1.131 0 0 0 .724-.342 1.453 1.453 0 0 0 .448-1.578L28.3 26.1l9.76-7.538.239-.219a1.517 1.517 0 0 0 .424-.938A1.428 1.428 0 0 0 37.336 16z" class="cls-1" data-name="Icon ionic-ios-star" transform="translate(13.247 -3.376)"/>
        <path id="Icon_ionic-ios-star-2" d="M20.23 9.844h-6.137l-1.865-5.993a.661.661 0 0 0-1.268 0L9.1 9.844H2.918a.7.7 0 0 0-.668.718.567.567 0 0 0 .012.12.7.7 0 0 0 .28.507l5.044 3.829-1.936 6.061a.754.754 0 0 0 .23.809.623.623 0 0 0 .376.175.781.781 0 0 0 .418-.162l4.926-3.779 4.917 3.778a.748.748 0 0 0 .418.162.579.579 0 0 0 .371-.175.744.744 0 0 0 .23-.809l-1.936-6.06 5-3.864.12-.112a.778.778 0 0 0 .217-.479.731.731 0 0 0-.707-.719z" class="cls-1" data-name="Icon ionic-ios-star" transform="translate(46.07 17.422)"/>
        <path id="Icon_ionic-ios-star-3" d="M20.23 9.844h-6.137l-1.865-5.993a.661.661 0 0 0-1.268 0L9.1 9.844H2.918a.7.7 0 0 0-.668.718.567.567 0 0 0 .012.12.7.7 0 0 0 .28.507l5.044 3.829-1.936 6.061a.754.754 0 0 0 .23.809.623.623 0 0 0 .376.175.781.781 0 0 0 .418-.162l4.926-3.779 4.917 3.778a.748.748 0 0 0 .418.162.579.579 0 0 0 .371-.175.744.744 0 0 0 .23-.809l-1.936-6.06 5-3.864.12-.112a.778.778 0 0 0 .217-.479.731.731 0 0 0-.707-.719z" class="cls-1" data-name="Icon ionic-ios-star" transform="translate(-2.25 17.422)"/>
    </g>
</svg>
