<svg xmlns="http://www.w3.org/2000/svg" width="59.953" height="82.084" viewBox="0 0 59.953 82.084">
    <defs>
        <style>
            .cls-1{fill:none;stroke:#fff;stroke-width:2px}.cls-2{fill:#fff}
        </style>
    </defs>
    <g id="그룹_265" data-name="그룹 265" transform="rotate(30 22.388 76.09)">
        <g id="그룹_78" data-name="그룹 78">
            <path id="패스_251" d="M0 73.594S48.408 47.982 8.48 0" class="cls-1" data-name="패스 251" transform="translate(0 6.8)"/>
            <path id="패스_252" d="M0 0s8.185.044 8.946 7.553C.191 6.986 0 0 0 0z" class="cls-2" data-name="패스 252" transform="translate(1.366 .366)"/>
            <path id="패스_253" d="M2.407 14.059C2.407 13.928 7.879 4.846.6 0c-2.047 9.824 1.807 14.059 1.807 14.059z" class="cls-2" data-name="패스 253" transform="translate(13.822 2.383)"/>
            <path id="패스_254" d="M2.3 0c0 .132-5.914 10.123 1.217 14.848C5.775 4.923 2.3 0 2.3 0z" class="cls-2" data-name="패스 254" transform="rotate(-164.991 13.445 12.113)"/>
            <path id="패스_255" d="M2.919 0c-.005.134-6.784 6.931.334 14.476C5.64 4.359 2.919 0 2.919 0z" class="cls-2" data-name="패스 255" transform="rotate(-150 18.73 16.397)"/>
            <path id="패스_262" d="M1.108 0c0 .11 5.591 5.66-.32 11.858C-1.156 3.577 1.108 0 1.108 0z" class="cls-2" data-name="패스 262" transform="rotate(154.024 3.26 32.806)"/>
            <path id="패스_263" d="M1.609 0C1.611.108 8.8 5.542.876 11.716-1.458 3.554 1.609 0 1.609 0z" class="cls-2" data-name="패스 263" transform="rotate(167 1.952 36.846)"/>
            <path id="패스_259" d="M1.27 0C1.27.109 7 5.631.87 11.8.5 10.265-.527 9.549.334 5.875.793 3.917 1.27 0 1.27 0z" class="cls-2" data-name="패스 259" transform="rotate(113.003 2.93 14.212)"/>
            <path id="패스_260" d="M0 0c0 .11 8.682 5.13 1.915 11.239C1.5 9.691.107 8.893.441 5.712.83 4 0 0 0 0z" class="cls-2" data-name="패스 260" transform="rotate(135 4.87 20.336)"/>
            <path id="패스_261" d="M0 0c0 .106 10.3 4.439 3.129 10.461a20.572 20.572 0 0 1-1.2-5.369A11.237 11.237 0 0 0 0 0z" class="cls-2" data-name="패스 261" transform="rotate(164.991 8.905 25.268)"/>
            <path id="패스_256" d="M0 9.819S10.7 7.946 9.34 0C3.093 1.533 0 9.819 0 9.819z" class="cls-2" data-name="패스 256" transform="translate(24.295 38.275)"/>
            <path id="패스_257" d="M10.029 0S-.956 2.361.067 10.437C4.516 9.148 5.47 4.968 9.7.329c.275-.386.329-.329.329-.329z" class="cls-2" data-name="패스 257" transform="rotate(-150 19.921 36.134)"/>
            <path id="패스_258" d="M9.283 0S-1.4 1.416.156 9.717c4.5-1.2 4.577-4.893 8.8-9.4.271-.374.327-.317.327-.317z" class="cls-2" data-name="패스 258" transform="rotate(-164.991 18.156 29.883)"/>
        </g>
    </g>
</svg>
