<svg xmlns="http://www.w3.org/2000/svg" width="58.215" height="81.067" viewBox="0 0 58.215 81.067">
    <defs>
        <style>
            .cls-1{fill:none;stroke:#fff;stroke-width:2px}.cls-2{fill:#fff}
        </style>
    </defs>
    <g id="월계수" transform="rotate(-30 22.448 26.237)">
        <path id="패스_251" d="M22.266 73.6S-22.152 47.984 14.484 0" class="cls-1" data-name="패스 251" transform="translate(9.212 6.799)"/>
        <path id="패스_252" d="M8.209 0S.7.044 0 7.553C8.033 6.986 8.209 0 8.209 0z" class="cls-2" data-name="패스 252" transform="translate(21.903 .366)"/>
        <path id="패스_253" d="M1.811 14.059C1.811 13.928-3.21 4.846 3.47 0c1.877 9.824-1.659 14.059-1.659 14.059z" class="cls-2" data-name="패스 253" transform="translate(14.779 2.383)"/>
        <path id="패스_254" d="M1.962 14.791c0-.131-5.251-9.945 1.429-14.791 1.877 9.824-1.429 14.791-1.429 14.791z" class="cls-2" data-name="패스 254" transform="rotate(-15.009 52.248 -17.927)"/>
        <path id="패스_255" d="M2.488 14.19c0-.131-6.117-6.546.83-14.19 1.882 9.824-.83 14.19-.83 14.19z" class="cls-2" data-name="패스 255" transform="rotate(-30 51.23 13.727)"/>
        <path id="패스_262" d="M1.23 11.681C1.23 11.573 6.264 6.292.546 0-1 8.086 1.23 11.681 1.23 11.681z" class="cls-2" data-name="패스 262" transform="rotate(25.97 -100.303 63.19)"/>
        <path id="패스_263" d="M1.594 11.681c0-.108 6.528-5.389-.887-11.681-2.007 8.086.887 11.681.887 11.681z" class="cls-2" data-name="패스 263" transform="rotate(13 -255.977 130.738)"/>
        <path id="패스_259" d="M1.5 10.986C1.5 10.884 7 5.917.758 0 .445 1.415-.553 2.05.407 5.493.918 7.328 1.5 10.986 1.5 10.986z" class="cls-2" data-name="패스 259" transform="rotate(66.997 3.372 25.705)"/>
        <path id="패스_260" d="M0 10.7C0 10.592 8.113 6.136 1.373 0 1.035 1.467-.264 2.175.188 5.239.631 6.893 0 10.7 0 10.7z" class="cls-2" data-name="패스 260" transform="rotate(45 -19.5 33.846)"/>
        <path id="패스_261" d="M0 10.339C0 10.233 9.413 6.136 2.673 0a21.252 21.252 0 0 0-1 5.315A11.182 11.182 0 0 1 0 10.339z" class="cls-2" data-name="패스 261" transform="rotate(15.009 -135.822 64.577)"/>
        <path id="패스_256" d="M8.68 9.819S-1.139 7.946.11 0c5.733 1.533 8.57 9.819 8.57 9.819z" class="cls-2" data-name="패스 256" transform="translate(.505 38.27)"/>
        <path id="패스_257" d="M9.079 9.863S-1.143 7.946.106 0C4.233 1.1 4.979 5.164 8.78 9.556c.247.368.299.307.299.307z" class="cls-2" data-name="패스 257" transform="rotate(-30 132.142 17.161)"/>
        <path id="패스_258" d="M8.4 9.471S-1.433 8.287.178 0C4.306 1.1 4.3 4.772 8.1 9.164c.251.369.3.307.3.307z" class="cls-2" data-name="패스 258" transform="rotate(-15.009 206.95 13.801)"/>
    </g>
</svg>
